
[b]Format : AVI 
Format/Info : Audio Video Interleave 
File size : 702 MiB 
Duration : 1h 29mn 
Overall bit rate : 1 095 Kbps 
Writing application : VirtualDubMod 1.5.10.3 | www.virtualdub-fr.org || (build 2550/release) 
Writing library : VirtualDubMod build 2550/release 

Video 
ID : 0 
Format : MPEG-4 Visual 
Format profile : AdvancedSimple@L5 
Format settings, BVOP : Yes 
Format settings, QPel : No 
Format settings, GMC : No warppoints 
Format settings, Matrix : Default (H.263) 
Muxing mode : Packed bitstream 
Codec ID : XVID 
Codec ID/Hint : XviD 
Duration : 1h 29mn 
Bit rate : 955 Kbps 
Width : 720 pixels 
Height : 480 pixels 
Display aspect ratio : 1.500 
Frame rate : 29.970 fps 
Standard : NTSC 
Resolution : 24 bits 
Colorimetry : 4:2:0 
Scan type : Progressive 
Bits/(Pixel*Frame) : 0.092 
Stream size : 613 MiB (87%) 
Writing library : XviD 1.2.1 (UTC 2008-12-04) 

Audio 
ID : 1 
Format : MPEG Audio 
Format version : Version 1 
Format profile : Layer 3 
Codec ID : 55 
Codec ID/Hint : MP3 
Duration : 1h 29mn 
Bit rate mode : Constant 
Bit rate : 128 Kbps 
Channel(s) : 2 channels 
Sampling rate : 44.1 KHz 
Resolution : 16 bits 
Stream size : 82.1 MiB (12%) 
Alignment : Split accross interleaves 
Interleave, duration : 33 ms (1.00 video frame) 
Interleave, preload duration : 500 ms 

[color=red]VIDEO SOURCE: WBZ
AUDIO SOURCE: GREENFROGR
ENCODER:GHOSTMAN[/color]
[/b]
[b]An out-of-the-way diner becomes the unlikely battleground for the survival of the human race. When God loses faith in humankind, he sends his legion of angels to bring on the Apocalypse.[/b]
[b]Paul Bettany ... Michael
Lucas Black ... Jeep Hanson
Tyrese Gibson ... Kyle Williams
Adrianne Palicki ... Charlie
Charles S. Dutton ... Percy Walker
Kevin Durand ... Gabriel
Jon Tenney ... Howard Anderson
Willa Holland ... Audrey Anderson
Kate Walsh ... Sandra Anderson
Dennis Quaid ... Bob Hanson
Jeanette Miller ... Gladys Foster
Cameron Harlow ... Minivan Boy
Doug Jones ... Ice Cream Man
Josh Stamberg ... Burton
Yancey Arias ... Estevez[/b]
[img=groupnames]http://i705.photobucket.com/albums/ww52/Gt3ch1220/Elite-RG2-1.gif[/img]
